<svg width="500" height="500" viewBox="0 0 500 500" fill="none" xmlns="http://www.w3.org/2000/svg">
<g clip-path="url(#clip0_1278_697)">
<g clip-path="url(#clip1_1278_697)">
<path d="M271.333 449.721V404.688V262.27L435.219 169.06C436.932 168.086 438.035 166.252 437.909 164.25C437.496 157.671 435.682 151.62 432.463 146.102C428.771 139.773 423.585 134.678 416.917 130.817L416.916 130.817L271.084 46.9631C271.084 46.963 271.083 46.9628 271.083 46.9627C264.414 43.1016 257.383 41.1667 250 41.1667C242.617 41.1667 235.586 43.1016 228.917 46.9627C228.917 46.9628 228.916 46.963 228.916 46.9631L83.0841 130.817L83.0828 130.817C76.4146 134.678 71.2288 139.773 67.5369 146.102C63.8439 152.433 62 159.465 62 167.188V332.813C62 340.535 63.8439 347.567 67.5369 353.898C71.2288 360.227 76.4146 365.322 83.0828 369.183L83.0841 369.184L228.916 453.037C235.586 456.898 242.616 458.833 250 458.833C256.442 458.833 262.617 457.36 268.519 454.418C270.301 453.53 271.333 451.677 271.333 449.721ZM228.667 264.861V396.014C228.667 399.48 224.911 401.645 221.911 399.908L106.911 333.304C105.522 332.499 104.667 331.015 104.667 329.41V198.257C104.667 194.79 108.422 192.626 111.422 194.363L226.422 260.967C227.811 261.772 228.667 263.256 228.667 264.861ZM365.699 158.583L252.252 224.162C250.859 224.968 249.141 224.968 247.748 224.162L134.301 158.583C131.304 156.851 131.304 152.524 134.301 150.792L247.748 85.2127C249.141 84.4073 250.859 84.4073 252.252 85.2127L365.699 150.792C368.696 152.524 368.696 156.851 365.699 158.583Z" fill="#FFF7F7" stroke="#FFF7F7"/>
<path d="M402.684 346.234C405.027 343.891 405.027 340.092 402.684 337.749L336.494 271.559C334.15 269.216 334.15 265.417 336.494 263.073L350.736 248.831C353.079 246.488 356.878 246.488 359.221 248.831L448.138 337.749C450.481 340.092 450.481 343.891 448.138 346.234L359.221 435.151C356.878 437.494 353.079 437.494 350.736 435.151L336.494 420.909C334.15 418.566 334.15 414.767 336.494 412.424L402.684 346.234Z" fill="#FFF7F7"/>
</g>
</g>
<defs>
<clipPath id="clip0_1278_697">
<rect width="500" height="500" fill="white"/>
</clipPath>
<clipPath id="clip1_1278_697">
<rect width="500" height="500" fill="white"/>
</clipPath>
</defs>
</svg>
